<?xml version="1.0" encoding="utf-8"?>
<!-- Generator: Adobe Illustrator 19.0.0, SVG Export Plug-In . SVG Version: 6.00 Build 0)  -->
<svg version="1.1" id="Layer_1" xmlns="http://www.w3.org/2000/svg" xmlns:xlink="http://www.w3.org/1999/xlink" x="0px" y="0px"
	 viewBox="0 0 1500 1500" style="enable-background:new 0 0 1500 1500;" xml:space="preserve">
<style type="text/css">
	.st0{fill:#5DA4DA;}
	.st1{fill:#6EAFE0;}
	.st2{fill:#FFFFFF;}
</style>
<g id="XMLID_9_">
	<g id="XMLID_8_">
		<path id="XMLID_6_" class="st0" d="M1045.7,690.1c-111.5,91-459.6,91-568.8,0c-111.5-91-100.1-480.1,0-582.5s468.7-102.4,568.8,0
			S1157.2,599.1,1045.7,690.1z"/>
		<path id="XMLID_5_" class="st1" d="M763.6,530.8C663.4,610.5,552,651.4,447.3,653.7c-77.4-132-61.4-452.8,29.6-546.1
			c81.9-84.2,339-100.1,486.9-47.8C1000.2,210,925.1,401.2,763.6,530.8z"/>
		<path id="XMLID_2_" class="st2" d="M761.3,621.9c-61.4,0-106.9-20.5-136.5-61.4c-29.6-41-45.5-95.6-45.5-166.1
			c0-68.3,15.9-125.1,45.5-166.1c29.6-41,75.1-61.4,136.5-61.4s106.9,20.5,136.5,61.4c29.6,41,45.5,95.6,45.5,166.1
			c0,68.3-15.9,125.1-45.5,166.1C868.2,601.4,822.7,621.9,761.3,621.9z M697.6,287.4c-13.7,27.3-20.5,61.4-20.5,106.9
			c0,43.2,6.8,79.6,20.5,106.9c13.7,27.3,36.4,41,63.7,41c29.6,0,50.1-13.7,63.7-41c13.7-27.3,20.5-61.4,20.5-106.9
			c0-43.2-6.8-79.6-20.5-106.9c-13.7-27.3-36.4-41-63.7-41C731.7,248.7,711.2,262.4,697.6,287.4z"/>
	</g>
	<g id="XMLID_7_">
		<path id="XMLID_16_" class="st0" d="M648.2,1396.7c-111.5,91-459.6,91-568.8,0c-111.5-91-100.1-480.1,0-582.5s468.7-102.4,568.8,0
			S759.7,1305.7,648.2,1396.7z"/>
		<path id="XMLID_15_" class="st1" d="M366.1,1237.5c-100.1,79.6-211.6,120.6-316.3,122.9c-77.4-132-61.4-452.8,29.6-546.1
			c81.9-84.2,339-100.1,486.9-47.8C602.7,916.7,527.6,1107.8,366.1,1237.5z"/>
		<path id="XMLID_14_" class="st2" d="M275.1,880.3h177.5v439.1h-93.3V964.4h-84.2V880.3L275.1,880.3z"/>
	</g>
	<g id="XMLID_1_">
		<path id="XMLID_13_" class="st0" d="M1408,1396.7c-111.5,91-459.6,91-568.8,0c-109.2-91-100.1-480.1,0-582.5s468.7-102.4,568.8,0
			C1508.1,916.7,1519.4,1305.7,1408,1396.7z"/>
		<path id="XMLID_12_" class="st1" d="M1125.8,1237.5c-100.1,79.6-211.6,120.6-316.3,122.9c-77.4-132-61.4-452.8,29.6-546.1
			c81.9-84.2,339-100.1,486.9-47.8C1362.4,916.7,1287.4,1107.8,1125.8,1237.5z"/>
		<path id="XMLID_11_" class="st2" d="M1157.7,1057.7c11.4-15.9,15.9-31.9,15.9-45.5s-4.5-27.3-13.7-36.4
			c-9.1-9.1-22.8-15.9-36.4-15.9c-27.3,0-54.6,20.5-79.6,59.2l-79.6-45.5c20.5-31.9,43.2-56.9,68.3-72.8c25-15.9,56.9-25,93.3-25
			c36.4,0,70.5,11.4,100.1,36.4c29.6,25,43.2,56.9,43.2,97.8c0,22.8-6.8,45.5-18.2,66c-11.4,20.5-31.9,47.8-63.7,79.6l-79.6,81.9
			h175.2v88.7H971.1v-72.8l129.7-132C1128.1,1094.1,1146.3,1073.7,1157.7,1057.7z"/>
	</g>
</g>
</svg>
