<svg id="Layer_1" enable-background="new 0 0 128 128" height="512" viewBox="0 0 128 128" width="512" xmlns="http://www.w3.org/2000/svg"><g><g><g><path d="m56.988 14.249h-39.243c-2.58 0-4.679 2.099-4.679 4.679v39.243c0 2.58 2.099 4.679 4.679 4.679h39.243c2.58 0 4.679-2.099 4.679-4.679v-39.243c0-2.58-2.099-4.679-4.679-4.679z" fill="#e6e7e8"/></g><g><path d="m37.366 68.546c-6.491 0-12.593 2.528-17.183 7.118-4.59 4.589-7.118 10.692-7.118 17.183s2.528 12.593 7.118 17.183c4.589 4.59 10.692 7.117 17.183 7.117s12.593-2.528 17.183-7.118c4.59-4.589 7.118-10.692 7.118-17.183s-2.528-12.593-7.118-17.183c-4.589-4.589-10.692-7.117-17.183-7.117z" fill="#e6e7e8"/></g><g><path d="m73.5 62.85h39.007c1.673 0 3.179-.86 4.029-2.301s.875-3.175.066-4.64l-19.503-35.313c-.836-1.514-2.367-2.417-4.096-2.417s-3.26.904-4.095 2.417l-19.504 35.313c-.809 1.464-.784 3.199.066 4.64s2.356 2.301 4.03 2.301z" fill="#e6e7e8"/></g><g><path d="m118.68 86.596c-.68-2.093-2.542-3.446-4.743-3.446h-10.199c-1.298 0-2.439-.83-2.84-2.064l-3.152-9.7c-.68-2.093-2.542-3.445-4.743-3.445s-4.063 1.352-4.743 3.445l-3.152 9.7c-.401 1.234-1.542 2.064-2.841 2.064h-10.199c-2.201 0-4.063 1.353-4.743 3.446s.031 4.282 1.812 5.575l8.251 5.995c1.05.763 1.486 2.105 1.085 3.339l-3.152 9.7c-.68 2.093.031 4.282 1.812 5.575.89.647 1.911.97 2.931.97 1.021 0 2.041-.323 2.931-.97l8.252-5.995c1.05-.763 2.461-.763 3.511 0l8.251 5.995c1.781 1.294 4.082 1.293 5.862 0s2.492-3.482 1.812-5.575l-3.152-9.7c-.401-1.234.035-2.576 1.085-3.339l8.252-5.995c1.781-1.294 2.492-3.482 1.812-5.575z" fill="#e6e7e8"/></g></g><g><g><g><path d="m52.988 11.249h-39.243c-2.032 0-3.679 1.647-3.679 3.679v39.243c0 2.032 1.647 3.679 3.679 3.679h39.243c2.032 0 3.679-1.647 3.679-3.679v-39.243c0-2.032-1.648-3.679-3.679-3.679z" fill="#fa759e"/><g><path d="m52.988 54.849h-39.243c-2.032 0-3.679-1.647-3.679-3.679v3c0 2.032 1.647 3.679 3.679 3.679h39.243c2.032 0 3.679-1.647 3.679-3.679v-3c-.001 2.032-1.647 3.679-3.679 3.679z" fill="#fff"/></g><path d="m49.842 72.37c-9.099-9.099-23.852-9.099-32.952 0-9.099 9.099-9.099 23.852 0 32.951 9.099 9.099 23.852 9.099 32.951 0 9.1-9.098 9.1-23.851.001-32.951z" fill="#ffd7e5"/></g><g><path d="m111.726 52.392-19.503-35.313c-1.399-2.534-5.041-2.534-6.44 0l-19.504 35.313c-1.354 2.452.419 5.457 3.22 5.457h39.007c2.801 0 4.575-3.005 3.22-5.457z" fill="#ffd7e5"/><g><path d="m92.794 67.695 3.152 9.7c.534 1.643 2.064 2.755 3.792 2.755h10.199c3.862 0 5.468 4.942 2.343 7.212l-8.252 5.995c-1.397 1.015-1.982 2.815-1.448 4.457l3.152 9.7c1.193 3.673-3.01 6.727-6.135 4.457l-8.252-5.995c-1.397-1.015-3.289-1.015-4.687 0l-8.252 5.995c-3.124 2.27-7.328-.784-6.135-4.457l3.152-9.7c.534-1.643-.051-3.442-1.448-4.457l-8.252-5.995c-3.124-2.27-1.519-7.212 2.343-7.212h10.199c1.727 0 3.258-1.112 3.792-2.755l3.152-9.7c1.196-3.673 6.392-3.673 7.585 0z" fill="#fa759e"/><g fill="#3a2c60"><path d="m52.988 10.249h-9.435c-.552 0-1 .448-1 1s.448 1 1 1h9.435c1.477 0 2.679 1.202 2.679 2.679v39.242c0 1.477-1.202 2.679-2.679 2.679h-39.243c-1.477 0-2.679-1.202-2.679-2.679v-39.243c0-1.477 1.202-2.679 2.679-2.679h13.328c.552 0 1-.448 1-1s-.448-1-1-1h-13.328c-2.58 0-4.679 2.099-4.679 4.679v39.243c0 2.58 2.099 4.679 4.679 4.679h39.243c2.58 0 4.679-2.099 4.679-4.679v-39.243c0-2.58-2.099-4.678-4.679-4.678z"/><path d="m31.821 12.249h6.827c.552 0 1-.448 1-1s-.448-1-1-1h-6.827c-.552 0-1 .448-1 1s.448 1 1 1z"/><path d="m16.184 71.663c-4.59 4.59-7.118 10.692-7.118 17.183s2.528 12.593 7.118 17.183c4.589 4.59 10.692 7.118 17.183 7.118s12.593-2.528 17.183-7.118c4.59-4.589 7.118-10.692 7.118-17.183s-2.528-12.593-7.118-17.183c-9.476-9.474-24.892-9.474-34.366 0zm32.951 32.952c-4.212 4.212-9.812 6.532-15.769 6.532s-11.557-2.32-15.769-6.532-6.532-9.812-6.532-15.769 2.32-11.557 6.532-15.769c4.348-4.347 10.058-6.521 15.769-6.521s11.421 2.174 15.769 6.521c4.212 4.212 6.532 9.813 6.532 15.769s-2.32 11.557-6.532 15.769z"/><path d="m69.5 58.849h39.007c1.673 0 3.179-.86 4.029-2.301s.875-3.175.066-4.64l-19.503-35.312c-.836-1.514-2.367-2.417-4.096-2.417s-3.26.904-4.095 2.417l-19.504 35.313c-.809 1.464-.784 3.198.066 4.639s2.356 2.301 4.03 2.301zm-2.345-5.973 19.503-35.313c.478-.866 1.354-1.384 2.344-1.384s1.867.518 2.345 1.384l19.503 35.313c.463.838.449 1.832-.038 2.656-.487.825-1.35 1.317-2.307 1.317h-39.005c-.958 0-1.821-.493-2.308-1.317-.486-.825-.501-1.818-.037-2.656z"/><path d="m114.68 82.596c-.68-2.093-2.542-3.446-4.743-3.446h-10.199c-1.298 0-2.439-.83-2.84-2.064l-3.152-9.7c-.68-2.093-2.542-3.445-4.743-3.445s-4.063 1.352-4.743 3.445l-3.152 9.7c-.401 1.234-1.542 2.064-2.84 2.064h-10.2c-2.201 0-4.063 1.353-4.743 3.446s.031 4.282 1.812 5.575l8.251 5.995c1.05.763 1.486 2.104 1.085 3.339l-3.152 9.701c-.68 2.093.031 4.282 1.812 5.575.89.647 1.911.97 2.931.97 1.021 0 2.041-.323 2.931-.97l8.252-5.995c1.05-.763 2.461-.763 3.511 0l8.251 5.995c1.781 1.294 4.082 1.293 5.862 0s2.492-3.482 1.812-5.575l-3.152-9.701c-.401-1.234.035-2.576 1.085-3.339l8.252-5.995c1.781-1.293 2.492-3.482 1.812-5.575zm-2.987 3.957-8.252 5.995c-1.753 1.274-2.481 3.515-1.812 5.575l3.152 9.701c.495 1.521-.236 2.723-1.085 3.339-.848.616-2.216.94-3.511 0l-8.251-5.995c-1.754-1.273-4.109-1.273-5.862 0l-8.252 5.995c-1.294.94-2.662.617-3.511 0-.849-.616-1.58-1.817-1.085-3.339l3.152-9.701c.669-2.061-.059-4.302-1.812-5.575l-8.251-5.995c-1.294-.94-1.409-2.341-1.085-3.339s1.24-2.064 2.84-2.064h10.2c2.167 0 4.073-1.385 4.743-3.446l3.152-9.7c.494-1.521 1.792-2.063 2.84-2.063s2.346.542 2.84 2.063l3.152 9.7c.67 2.061 2.576 3.446 4.743 3.446h10.199c1.6 0 2.517 1.066 2.841 2.063.324.999.209 2.4-1.085 3.34z"/></g></g></g></g></g></g></svg>